{
	"asset":{
		"generator":"Khronos glTF Blender I/O v3.6.27",
		"version":"2.0"
	},
	"extensionsUsed":[
		"KHR_materials_specular",
		"KHR_materials_ior"
	],
	"scene":0,
	"scenes":[
		{
			"name":"Scene",
			"nodes":[
				0,
				1,
				2,
				3,
				4
			]
		}
	],
	"nodes":[
		{
			"mesh":0,
			"name":"BezierCircle",
			"rotation":[
				0.7009092569351196,
				0,
				0,
				0.713250458240509
			],
			"scale":[
				1.499574065208435,
				1.499574065208435,
				1.499574065208435
			],
			"translation":[
				0,
				0.3148270845413208,
				0.48187100887298584
			]
		},
		{
			"mesh":1,
			"name":"Circle",
			"rotation":[
				0.7009092569351196,
				0,
				0,
				0.713250458240509
			],
			"translation":[
				0,
				0.31323280930519104,
				-0.060336366295814514
			]
		},
		{
			"mesh":2,
			"name":"Circle.001",
			"rotation":[
				0.7009092569351196,
				0,
				0,
				0.7132505178451538
			],
			"scale":[
				1.3201321363449097,
				1,
				1.3201322555541992
			],
			"translation":[
				0,
				0.31323280930519104,
				-0.3580549359321594
			]
		},
		{
			"mesh":3,
			"name":"Circle.002",
			"rotation":[
				0.7009092569351196,
				0,
				0,
				0.7132505178451538
			],
			"scale":[
				1.3201321363449097,
				1,
				1.3201322555541992
			],
			"translation":[
				0,
				0.31323280930519104,
				-0.3580549359321594
			]
		},
		{
			"mesh":4,
			"name":"BezierCircle.001",
			"rotation":[
				0.7009092569351196,
				0,
				0,
				0.7132505178451538
			],
			"scale":[
				1.7899107933044434,
				1.7899107933044434,
				1.7899107933044434
			],
			"translation":[
				0,
				0.3148270845413208,
				0.48187100887298584
			]
		}
	],
	"animations":[
		{
			"channels":[
				{
					"sampler":0,
					"target":{
						"node":0,
						"path":"translation"
					}
				}
			],
			"name":"BezierCircleAction.001",
			"samplers":[
				{
					"input":19,
					"interpolation":"LINEAR",
					"output":20
				}
			]
		},
		{
			"channels":[
				{
					"sampler":0,
					"target":{
						"node":2,
						"path":"rotation"
					}
				}
			],
			"name":"Circle.001Action",
			"samplers":[
				{
					"input":21,
					"interpolation":"LINEAR",
					"output":22
				}
			]
		},
		{
			"channels":[
				{
					"sampler":0,
					"target":{
						"node":3,
						"path":"rotation"
					}
				}
			],
			"name":"Circle.002Action",
			"samplers":[
				{
					"input":21,
					"interpolation":"LINEAR",
					"output":23
				}
			]
		},
		{
			"channels":[
				{
					"sampler":0,
					"target":{
						"node":4,
						"path":"translation"
					}
				}
			],
			"name":"BezierCircleAction.002",
			"samplers":[
				{
					"input":24,
					"interpolation":"LINEAR",
					"output":25
				}
			]
		}
	],
	"materials":[
		{
			"doubleSided":true,
			"emissiveFactor":[
				0.799102783203125,
				0.6546043753623962,
				0.0005547548062168062
			],
			"name":"Material.002",
			"pbrMetallicRoughness":{
				"baseColorFactor":[
					0.8000000715255737,
					0.5885597467422485,
					0,
					1
				],
				"metallicFactor":0,
				"roughnessFactor":0.5
			}
		},
		{
			"doubleSided":true,
			"emissiveFactor":[
				1,
				1,
				1
			],
			"emissiveTexture":{
				"index":0
			},
			"extensions":{
				"KHR_materials_specular":{
					"specularColorFactor":[
						0,
						0,
						0
					]
				},
				"KHR_materials_ior":{
					"ior":1.4500000476837158
				}
			},
			"name":"Material.004",
			"pbrMetallicRoughness":{
				"baseColorTexture":{
					"index":1
				},
				"metallicFactor":0
			}
		},
		{
			"doubleSided":true,
			"emissiveFactor":[
				0.5711249709129333,
				0.5209956765174866,
				0.004016804043203592
			],
			"name":"Material.005",
			"pbrMetallicRoughness":{
				"baseColorFactor":[
					0.46778395771980286,
					0.3441843092441559,
					0,
					1
				],
				"metallicFactor":0,
				"roughnessFactor":0.5
			}
		},
		{
			"doubleSided":true,
			"name":"Material.001",
			"pbrMetallicRoughness":{
				"baseColorFactor":[
					0.009263956919312477,
					0.009263956919312477,
					0.009263956919312477,
					1
				],
				"roughnessFactor":0.2598187327384949
			}
		}
	],
	"meshes":[
		{
			"name":"BezierCircle",
			"primitives":[
				{
					"attributes":{
						"POSITION":0,
						"NORMAL":1,
						"TEXCOORD_0":2
					},
					"indices":3,
					"material":0
				}
			]
		},
		{
			"name":"Circle",
			"primitives":[
				{
					"attributes":{
						"POSITION":4,
						"NORMAL":5,
						"TEXCOORD_0":6
					},
					"indices":7,
					"material":1
				}
			]
		},
		{
			"name":"Circle.001",
			"primitives":[
				{
					"attributes":{
						"POSITION":8,
						"NORMAL":9,
						"TEXCOORD_0":10
					},
					"indices":11,
					"material":2
				}
			]
		},
		{
			"name":"Circle.002",
			"primitives":[
				{
					"attributes":{
						"POSITION":12,
						"NORMAL":13,
						"TEXCOORD_0":14
					},
					"indices":15,
					"material":3
				}
			]
		},
		{
			"name":"BezierCircle.001",
			"primitives":[
				{
					"attributes":{
						"POSITION":16,
						"NORMAL":17,
						"TEXCOORD_0":18
					},
					"indices":3,
					"material":0
				}
			]
		}
	],
	"textures":[
		{
			"sampler":0,
			"source":0
		},
		{
			"sampler":0,
			"source":0
		}
	],
	"images":[
		{
			"mimeType":"image/png",
			"name":"Juice-WRLD-and-Cordae-Single",
			"uri":"tex/Juice-WRLD-and-Cordae-Single.png"
		}
	],
	"accessors":[
		{
			"bufferView":0,
			"componentType":5126,
			"count":1313,
			"max":[
				1.0099999904632568,
				0.010000002570450306,
				1.0099999904632568
			],
			"min":[
				-1.0099999904632568,
				-0.010000002570450306,
				-1.0099999904632568
			],
			"type":"VEC3"
		},
		{
			"bufferView":1,
			"componentType":5126,
			"count":1313,
			"type":"VEC3"
		},
		{
			"bufferView":2,
			"componentType":5126,
			"count":1313,
			"type":"VEC2"
		},
		{
			"bufferView":3,
			"componentType":5123,
			"count":7200,
			"type":"SCALAR"
		},
		{
			"bufferView":4,
			"componentType":5126,
			"count":232,
			"max":[
				0.9985334277153015,
				0.18731172382831573,
				1
			],
			"min":[
				-0.9985334277153015,
				0,
				-1
			],
			"type":"VEC3"
		},
		{
			"bufferView":5,
			"componentType":5126,
			"count":232,
			"type":"VEC3"
		},
		{
			"bufferView":6,
			"componentType":5126,
			"count":232,
			"type":"VEC2"
		},
		{
			"bufferView":7,
			"componentType":5123,
			"count":684,
			"type":"SCALAR"
		},
		{
			"bufferView":8,
			"componentType":5126,
			"count":244,
			"max":[
				0.09081080555915833,
				0.18731172382831573,
				1
			],
			"min":[
				-0.9985334277153015,
				0,
				-1
			],
			"type":"VEC3"
		},
		{
			"bufferView":9,
			"componentType":5126,
			"count":244,
			"type":"VEC3"
		},
		{
			"bufferView":10,
			"componentType":5126,
			"count":244,
			"type":"VEC2"
		},
		{
			"bufferView":11,
			"componentType":5123,
			"count":708,
			"type":"SCALAR"
		},
		{
			"bufferView":12,
			"componentType":5126,
			"count":236,
			"max":[
				0.9985334277153015,
				0.18731172382831573,
				1
			],
			"min":[
				0,
				0,
				-1
			],
			"type":"VEC3"
		},
		{
			"bufferView":13,
			"componentType":5126,
			"count":236,
			"type":"VEC3"
		},
		{
			"bufferView":14,
			"componentType":5126,
			"count":236,
			"type":"VEC2"
		},
		{
			"bufferView":15,
			"componentType":5123,
			"count":684,
			"type":"SCALAR"
		},
		{
			"bufferView":16,
			"componentType":5126,
			"count":1313,
			"max":[
				1.024999976158142,
				0.025000009685754776,
				1.024999976158142
			],
			"min":[
				-1.024999976158142,
				-0.025000007823109627,
				-1.024999976158142
			],
			"type":"VEC3"
		},
		{
			"bufferView":17,
			"componentType":5126,
			"count":1313,
			"type":"VEC3"
		},
		{
			"bufferView":18,
			"componentType":5126,
			"count":1313,
			"type":"VEC2"
		},
		{
			"bufferView":19,
			"componentType":5126,
			"count":65,
			"max":[
				2.6666666666666665
			],
			"min":[
				0
			],
			"type":"SCALAR"
		},
		{
			"bufferView":20,
			"componentType":5126,
			"count":65,
			"type":"VEC3"
		},
		{
			"bufferView":21,
			"componentType":5126,
			"count":36,
			"max":[
				1.4583333333333333
			],
			"min":[
				0
			],
			"type":"SCALAR"
		},
		{
			"bufferView":22,
			"componentType":5126,
			"count":36,
			"type":"VEC4"
		},
		{
			"bufferView":23,
			"componentType":5126,
			"count":36,
			"type":"VEC4"
		},
		{
			"bufferView":24,
			"componentType":5126,
			"count":71,
			"max":[
				2.9166666666666665
			],
			"min":[
				0
			],
			"type":"SCALAR"
		},
		{
			"bufferView":25,
			"componentType":5126,
			"count":71,
			"type":"VEC3"
		}
	],
	"bufferViews":[
		{
			"buffer":0,
			"byteLength":15756,
			"byteOffset":0,
			"target":34962
		},
		{
			"buffer":0,
			"byteLength":15756,
			"byteOffset":15756,
			"target":34962
		},
		{
			"buffer":0,
			"byteLength":10504,
			"byteOffset":31512,
			"target":34962
		},
		{
			"buffer":0,
			"byteLength":14400,
			"byteOffset":42016,
			"target":34963
		},
		{
			"buffer":0,
			"byteLength":2784,
			"byteOffset":56416,
			"target":34962
		},
		{
			"buffer":0,
			"byteLength":2784,
			"byteOffset":59200,
			"target":34962
		},
		{
			"buffer":0,
			"byteLength":1856,
			"byteOffset":61984,
			"target":34962
		},
		{
			"buffer":0,
			"byteLength":1368,
			"byteOffset":63840,
			"target":34963
		},
		{
			"buffer":0,
			"byteLength":2928,
			"byteOffset":65208,
			"target":34962
		},
		{
			"buffer":0,
			"byteLength":2928,
			"byteOffset":68136,
			"target":34962
		},
		{
			"buffer":0,
			"byteLength":1952,
			"byteOffset":71064,
			"target":34962
		},
		{
			"buffer":0,
			"byteLength":1416,
			"byteOffset":73016,
			"target":34963
		},
		{
			"buffer":0,
			"byteLength":2832,
			"byteOffset":74432,
			"target":34962
		},
		{
			"buffer":0,
			"byteLength":2832,
			"byteOffset":77264,
			"target":34962
		},
		{
			"buffer":0,
			"byteLength":1888,
			"byteOffset":80096,
			"target":34962
		},
		{
			"buffer":0,
			"byteLength":1368,
			"byteOffset":81984,
			"target":34963
		},
		{
			"buffer":0,
			"byteLength":15756,
			"byteOffset":83352,
			"target":34962
		},
		{
			"buffer":0,
			"byteLength":15756,
			"byteOffset":99108,
			"target":34962
		},
		{
			"buffer":0,
			"byteLength":10504,
			"byteOffset":114864,
			"target":34962
		},
		{
			"buffer":0,
			"byteLength":260,
			"byteOffset":125368
		},
		{
			"buffer":0,
			"byteLength":780,
			"byteOffset":125628
		},
		{
			"buffer":0,
			"byteLength":144,
			"byteOffset":126408
		},
		{
			"buffer":0,
			"byteLength":576,
			"byteOffset":126552
		},
		{
			"buffer":0,
			"byteLength":576,
			"byteOffset":127128
		},
		{
			"buffer":0,
			"byteLength":284,
			"byteOffset":127704
		},
		{
			"buffer":0,
			"byteLength":852,
			"byteOffset":127988
		}
	],
	"samplers":[
		{
			"magFilter":9729,
			"minFilter":9987
		}
	],
	"buffers":[
		{
			"byteLength":128840,
			"uri":"pie.bin"
		}
	]
}
