{
	"asset":{
		"generator":"Khronos glTF Blender I/O v3.6.27",
		"version":"2.0"
	},
	"extensionsUsed":[
		"KHR_materials_specular",
		"KHR_materials_ior"
	],
	"scene":0,
	"scenes":[
		{
			"name":"Scene",
			"nodes":[
				0,
				1,
				2,
				3,
				4,
				5,
				6,
				7,
				8,
				9,
				10,
				11,
				12,
				13
			]
		}
	],
	"nodes":[
		{
			"mesh":0,
			"name":"Circle"
		},
		{
			"mesh":1,
			"name":"Cube"
		},
		{
			"mesh":2,
			"name":"Cube.001"
		},
		{
			"mesh":3,
			"name":"Circle.001"
		},
		{
			"mesh":4,
			"name":"Cylinder"
		},
		{
			"mesh":5,
			"name":"Cube.002"
		},
		{
			"mesh":6,
			"name":"Circle.002"
		},
		{
			"mesh":7,
			"name":"Plane"
		},
		{
			"mesh":8,
			"name":"Plane.001"
		},
		{
			"mesh":9,
			"name":"Plane.002",
			"translation":[
				-0.0041125169955194,
				-0.08156492561101913,
				0
			]
		},
		{
			"mesh":10,
			"name":"Circle.003"
		},
		{
			"mesh":11,
			"name":"Cylinder.001"
		},
		{
			"mesh":12,
			"name":"Cylinder.002"
		},
		{
			"mesh":13,
			"name":"Plane.003"
		}
	],
	"materials":[
		{
			"doubleSided":true,
			"extensions":{
				"KHR_materials_specular":{
					"specularColorFactor":[
						0.881658618362049,
						0.881658618362049,
						0.881658618362049
					]
				},
				"KHR_materials_ior":{
					"ior":1.4500000476837158
				}
			},
			"name":"Material.003",
			"pbrMetallicRoughness":{
				"baseColorFactor":[
					0.1704653948545456,
					0,
					0.00028059317264705896,
					1
				],
				"metallicFactor":0
			}
		},
		{
			"doubleSided":true,
			"extensions":{
				"KHR_materials_specular":{
					"specularColorFactor":[
						0.22041461925453018,
						0.22041461925453018,
						0.22041461925453018
					]
				},
				"KHR_materials_ior":{
					"ior":1.4500000476837158
				}
			},
			"name":"Material.002",
			"pbrMetallicRoughness":{
				"baseColorFactor":[
					0.2707066237926483,
					0.3506567180156708,
					0.33187809586524963,
					1
				],
				"roughnessFactor":0.09935897588729858
			}
		},
		{
			"alphaCutoff":1,
			"alphaMode":"MASK",
			"doubleSided":true,
			"name":"Material.004",
			"pbrMetallicRoughness":{}
		},
		{
			"doubleSided":true,
			"name":"Material.005",
			"pbrMetallicRoughness":{
				"baseColorFactor":[
					0,
					0,
					0,
					1
				],
				"metallicFactor":0,
				"roughnessFactor":0.5
			}
		},
		{
			"doubleSided":true,
			"name":"Material.001",
			"pbrMetallicRoughness":{
				"baseColorFactor":[
					0.15480545163154602,
					0.024142317473888397,
					0.0023174474481493235,
					1
				],
				"metallicFactor":0,
				"roughnessFactor":0.5
			}
		}
	],
	"meshes":[
		{
			"name":"Circle",
			"primitives":[
				{
					"attributes":{
						"POSITION":0,
						"NORMAL":1,
						"TEXCOORD_0":2
					},
					"indices":3,
					"material":0
				}
			]
		},
		{
			"name":"Cube.001",
			"primitives":[
				{
					"attributes":{
						"POSITION":4,
						"NORMAL":5,
						"TEXCOORD_0":6
					},
					"indices":7,
					"material":1
				}
			]
		},
		{
			"name":"Cube.002",
			"primitives":[
				{
					"attributes":{
						"POSITION":8,
						"NORMAL":9,
						"TEXCOORD_0":10
					},
					"indices":7,
					"material":1
				}
			]
		},
		{
			"name":"Circle.001",
			"primitives":[
				{
					"attributes":{
						"POSITION":11,
						"NORMAL":12,
						"TEXCOORD_0":13
					},
					"indices":14,
					"material":1
				}
			]
		},
		{
			"name":"Cylinder",
			"primitives":[
				{
					"attributes":{
						"POSITION":15,
						"NORMAL":16,
						"TEXCOORD_0":17
					},
					"indices":18,
					"material":1
				}
			]
		},
		{
			"name":"Cube",
			"primitives":[
				{
					"attributes":{
						"POSITION":19,
						"NORMAL":20,
						"TEXCOORD_0":21
					},
					"indices":22,
					"material":1
				}
			]
		},
		{
			"name":"Circle.003",
			"primitives":[
				{
					"attributes":{
						"POSITION":23,
						"NORMAL":24,
						"TEXCOORD_0":25
					},
					"indices":26,
					"material":2
				}
			]
		},
		{
			"name":"Plane",
			"primitives":[
				{
					"attributes":{
						"POSITION":27,
						"NORMAL":28,
						"TEXCOORD_0":29
					},
					"indices":30,
					"material":1
				}
			]
		},
		{
			"name":"Plane.001",
			"primitives":[
				{
					"attributes":{
						"POSITION":31,
						"NORMAL":32,
						"TEXCOORD_0":33
					},
					"indices":34,
					"material":1
				}
			]
		},
		{
			"name":"Plane.002",
			"primitives":[
				{
					"attributes":{
						"POSITION":35,
						"NORMAL":36,
						"TEXCOORD_0":37
					},
					"indices":38
				}
			]
		},
		{
			"name":"Circle.004",
			"primitives":[
				{
					"attributes":{
						"POSITION":39,
						"NORMAL":40,
						"TEXCOORD_0":41
					},
					"indices":42,
					"material":3
				}
			]
		},
		{
			"name":"Cylinder.001",
			"primitives":[
				{
					"attributes":{
						"POSITION":43,
						"NORMAL":44,
						"TEXCOORD_0":45
					},
					"indices":46,
					"material":1
				}
			]
		},
		{
			"name":"Cylinder.002",
			"primitives":[
				{
					"attributes":{
						"POSITION":47,
						"NORMAL":48,
						"TEXCOORD_0":49
					},
					"indices":50,
					"material":1
				}
			]
		},
		{
			"name":"Plane.003",
			"primitives":[
				{
					"attributes":{
						"POSITION":51,
						"NORMAL":52,
						"TEXCOORD_0":53
					},
					"indices":54,
					"material":4
				}
			]
		}
	],
	"accessors":[
		{
			"bufferView":0,
			"componentType":5126,
			"count":512,
			"max":[
				0.05000000447034836,
				0.08982095122337341,
				0.047076549381017685
			],
			"min":[
				-0.04999999701976776,
				-0.010179053992033005,
				0.04701722785830498
			],
			"type":"VEC3"
		},
		{
			"bufferView":1,
			"componentType":5126,
			"count":512,
			"type":"VEC3"
		},
		{
			"bufferView":2,
			"componentType":5126,
			"count":512,
			"type":"VEC2"
		},
		{
			"bufferView":3,
			"componentType":5123,
			"count":1338,
			"type":"SCALAR"
		},
		{
			"bufferView":4,
			"componentType":5126,
			"count":32,
			"max":[
				0.0013717313995584846,
				0.060440823435783386,
				0.05087084695696831
			],
			"min":[
				-0.0013717239489778876,
				0.002343166619539261,
				0.04718833416700363
			],
			"type":"VEC3"
		},
		{
			"bufferView":5,
			"componentType":5126,
			"count":32,
			"type":"VEC3"
		},
		{
			"bufferView":6,
			"componentType":5126,
			"count":32,
			"type":"VEC2"
		},
		{
			"bufferView":7,
			"componentType":5123,
			"count":60,
			"type":"SCALAR"
		},
		{
			"bufferView":8,
			"componentType":5126,
			"count":32,
			"max":[
				0.010207081213593483,
				0.04967987537384033,
				0.05452163144946098
			],
			"min":[
				-0.01763870008289814,
				0.023094555363059044,
				0.05083911865949631
			],
			"type":"VEC3"
		},
		{
			"bufferView":9,
			"componentType":5126,
			"count":32,
			"type":"VEC3"
		},
		{
			"bufferView":10,
			"componentType":5126,
			"count":32,
			"type":"VEC2"
		},
		{
			"bufferView":11,
			"componentType":5126,
			"count":384,
			"max":[
				0.05536384880542755,
				0.09518478810787201,
				0.05773552879691124
			],
			"min":[
				-0.055363841354846954,
				-0.015542898327112198,
				0.04512355476617813
			],
			"type":"VEC3"
		},
		{
			"bufferView":12,
			"componentType":5126,
			"count":384,
			"type":"VEC3"
		},
		{
			"bufferView":13,
			"componentType":5126,
			"count":384,
			"type":"VEC2"
		},
		{
			"bufferView":14,
			"componentType":5123,
			"count":1338,
			"type":"SCALAR"
		},
		{
			"bufferView":15,
			"componentType":5126,
			"count":1066,
			"max":[
				0.06597467511892319,
				0.04367988556623459,
				0.0564529113471508
			],
			"min":[
				0.06128651648759842,
				0.032719288021326065,
				0.04549231380224228
			],
			"type":"VEC3"
		},
		{
			"bufferView":16,
			"componentType":5126,
			"count":1066,
			"type":"VEC3"
		},
		{
			"bufferView":17,
			"componentType":5126,
			"count":1066,
			"type":"VEC2"
		},
		{
			"bufferView":18,
			"componentType":5123,
			"count":1908,
			"type":"SCALAR"
		},
		{
			"bufferView":19,
			"componentType":5126,
			"count":288,
			"max":[
				0.04431634768843651,
				0.08413729071617126,
				0.050024956464767456
			],
			"min":[
				-0.04431634023785591,
				-0.004495397210121155,
				0.04646919667720795
			],
			"type":"VEC3"
		},
		{
			"bufferView":20,
			"componentType":5126,
			"count":288,
			"type":"VEC3"
		},
		{
			"bufferView":21,
			"componentType":5126,
			"count":288,
			"type":"VEC2"
		},
		{
			"bufferView":22,
			"componentType":5123,
			"count":432,
			"type":"SCALAR"
		},
		{
			"bufferView":23,
			"componentType":5126,
			"count":64,
			"max":[
				0.050105903297662735,
				0.08992684632539749,
				0.05709657818078995
			],
			"min":[
				-0.05010589584708214,
				-0.010284952819347382,
				0.05709657445549965
			],
			"type":"VEC3"
		},
		{
			"bufferView":24,
			"componentType":5126,
			"count":64,
			"type":"VEC3"
		},
		{
			"bufferView":25,
			"componentType":5126,
			"count":64,
			"type":"VEC2"
		},
		{
			"bufferView":26,
			"componentType":5123,
			"count":186,
			"type":"SCALAR"
		},
		{
			"bufferView":27,
			"componentType":5126,
			"count":627,
			"max":[
				0.0619165413081646,
				0.11066381633281708,
				0.05634734034538269
			],
			"min":[
				0.02361428737640381,
				-0.031021911650896072,
				0.04546821117401123
			],
			"type":"VEC3"
		},
		{
			"bufferView":28,
			"componentType":5126,
			"count":627,
			"type":"VEC3"
		},
		{
			"bufferView":29,
			"componentType":5126,
			"count":627,
			"type":"VEC2"
		},
		{
			"bufferView":30,
			"componentType":5123,
			"count":1872,
			"type":"SCALAR"
		},
		{
			"bufferView":31,
			"componentType":5126,
			"count":627,
			"max":[
				-0.02361427992582321,
				0.11066381633281708,
				0.05634734034538269
			],
			"min":[
				-0.061916533857584,
				-0.031021911650896072,
				0.04546821117401123
			],
			"type":"VEC3"
		},
		{
			"bufferView":32,
			"componentType":5126,
			"count":627,
			"type":"VEC3"
		},
		{
			"bufferView":33,
			"componentType":5126,
			"count":627,
			"type":"VEC2"
		},
		{
			"bufferView":34,
			"componentType":5123,
			"count":1872,
			"type":"SCALAR"
		},
		{
			"bufferView":35,
			"componentType":5126,
			"count":16,
			"max":[
				1,
				0.93154376745224,
				1
			],
			"min":[
				-1,
				0,
				-1
			],
			"type":"VEC3"
		},
		{
			"bufferView":36,
			"componentType":5126,
			"count":16,
			"type":"VEC3"
		},
		{
			"bufferView":37,
			"componentType":5126,
			"count":16,
			"type":"VEC2"
		},
		{
			"bufferView":38,
			"componentType":5123,
			"count":42,
			"type":"SCALAR"
		},
		{
			"bufferView":39,
			"componentType":5126,
			"count":128,
			"max":[
				0.05000000447034836,
				0.08982095122337341,
				0.057124581187963486
			],
			"min":[
				-0.04999999701976776,
				-0.010179053992033005,
				0.045675184577703476
			],
			"type":"VEC3"
		},
		{
			"bufferView":40,
			"componentType":5126,
			"count":128,
			"type":"VEC3"
		},
		{
			"bufferView":41,
			"componentType":5126,
			"count":128,
			"type":"VEC2"
		},
		{
			"bufferView":42,
			"componentType":5123,
			"count":384,
			"type":"SCALAR"
		},
		{
			"bufferView":43,
			"componentType":5126,
			"count":2568,
			"max":[
				0.01465530227869749,
				0.13909578323364258,
				0.058260709047317505
			],
			"min":[
				-0.01465530227869749,
				-0.06335721909999847,
				-0.09273847192525864
			],
			"type":"VEC3"
		},
		{
			"bufferView":44,
			"componentType":5126,
			"count":2568,
			"type":"VEC3"
		},
		{
			"bufferView":45,
			"componentType":5126,
			"count":2568,
			"type":"VEC2"
		},
		{
			"bufferView":46,
			"componentType":5123,
			"count":7386,
			"type":"SCALAR"
		},
		{
			"bufferView":47,
			"componentType":5126,
			"count":22024,
			"max":[
				0.02346411719918251,
				0.13916130363941193,
				0.05848770588636398
			],
			"min":[
				-0.023219265043735504,
				-0.06342276930809021,
				-0.09375059604644775
			],
			"type":"VEC3"
		},
		{
			"bufferView":48,
			"componentType":5126,
			"count":22024,
			"type":"VEC3"
		},
		{
			"bufferView":49,
			"componentType":5126,
			"count":22024,
			"type":"VEC2"
		},
		{
			"bufferView":50,
			"componentType":5123,
			"count":67008,
			"type":"SCALAR"
		},
		{
			"bufferView":51,
			"componentType":5126,
			"count":18,
			"max":[
				1,
				0.9762345552444458,
				1
			],
			"min":[
				-1,
				-0.07859812676906586,
				-1
			],
			"type":"VEC3"
		},
		{
			"bufferView":52,
			"componentType":5126,
			"count":18,
			"type":"VEC3"
		},
		{
			"bufferView":53,
			"componentType":5126,
			"count":18,
			"type":"VEC2"
		},
		{
			"bufferView":54,
			"componentType":5123,
			"count":48,
			"type":"SCALAR"
		}
	],
	"bufferViews":[
		{
			"buffer":0,
			"byteLength":6144,
			"byteOffset":0,
			"target":34962
		},
		{
			"buffer":0,
			"byteLength":6144,
			"byteOffset":6144,
			"target":34962
		},
		{
			"buffer":0,
			"byteLength":4096,
			"byteOffset":12288,
			"target":34962
		},
		{
			"buffer":0,
			"byteLength":2676,
			"byteOffset":16384,
			"target":34963
		},
		{
			"buffer":0,
			"byteLength":384,
			"byteOffset":19060,
			"target":34962
		},
		{
			"buffer":0,
			"byteLength":384,
			"byteOffset":19444,
			"target":34962
		},
		{
			"buffer":0,
			"byteLength":256,
			"byteOffset":19828,
			"target":34962
		},
		{
			"buffer":0,
			"byteLength":120,
			"byteOffset":20084,
			"target":34963
		},
		{
			"buffer":0,
			"byteLength":384,
			"byteOffset":20204,
			"target":34962
		},
		{
			"buffer":0,
			"byteLength":384,
			"byteOffset":20588,
			"target":34962
		},
		{
			"buffer":0,
			"byteLength":256,
			"byteOffset":20972,
			"target":34962
		},
		{
			"buffer":0,
			"byteLength":4608,
			"byteOffset":21228,
			"target":34962
		},
		{
			"buffer":0,
			"byteLength":4608,
			"byteOffset":25836,
			"target":34962
		},
		{
			"buffer":0,
			"byteLength":3072,
			"byteOffset":30444,
			"target":34962
		},
		{
			"buffer":0,
			"byteLength":2676,
			"byteOffset":33516,
			"target":34963
		},
		{
			"buffer":0,
			"byteLength":12792,
			"byteOffset":36192,
			"target":34962
		},
		{
			"buffer":0,
			"byteLength":12792,
			"byteOffset":48984,
			"target":34962
		},
		{
			"buffer":0,
			"byteLength":8528,
			"byteOffset":61776,
			"target":34962
		},
		{
			"buffer":0,
			"byteLength":3816,
			"byteOffset":70304,
			"target":34963
		},
		{
			"buffer":0,
			"byteLength":3456,
			"byteOffset":74120,
			"target":34962
		},
		{
			"buffer":0,
			"byteLength":3456,
			"byteOffset":77576,
			"target":34962
		},
		{
			"buffer":0,
			"byteLength":2304,
			"byteOffset":81032,
			"target":34962
		},
		{
			"buffer":0,
			"byteLength":864,
			"byteOffset":83336,
			"target":34963
		},
		{
			"buffer":0,
			"byteLength":768,
			"byteOffset":84200,
			"target":34962
		},
		{
			"buffer":0,
			"byteLength":768,
			"byteOffset":84968,
			"target":34962
		},
		{
			"buffer":0,
			"byteLength":512,
			"byteOffset":85736,
			"target":34962
		},
		{
			"buffer":0,
			"byteLength":372,
			"byteOffset":86248,
			"target":34963
		},
		{
			"buffer":0,
			"byteLength":7524,
			"byteOffset":86620,
			"target":34962
		},
		{
			"buffer":0,
			"byteLength":7524,
			"byteOffset":94144,
			"target":34962
		},
		{
			"buffer":0,
			"byteLength":5016,
			"byteOffset":101668,
			"target":34962
		},
		{
			"buffer":0,
			"byteLength":3744,
			"byteOffset":106684,
			"target":34963
		},
		{
			"buffer":0,
			"byteLength":7524,
			"byteOffset":110428,
			"target":34962
		},
		{
			"buffer":0,
			"byteLength":7524,
			"byteOffset":117952,
			"target":34962
		},
		{
			"buffer":0,
			"byteLength":5016,
			"byteOffset":125476,
			"target":34962
		},
		{
			"buffer":0,
			"byteLength":3744,
			"byteOffset":130492,
			"target":34963
		},
		{
			"buffer":0,
			"byteLength":192,
			"byteOffset":134236,
			"target":34962
		},
		{
			"buffer":0,
			"byteLength":192,
			"byteOffset":134428,
			"target":34962
		},
		{
			"buffer":0,
			"byteLength":128,
			"byteOffset":134620,
			"target":34962
		},
		{
			"buffer":0,
			"byteLength":84,
			"byteOffset":134748,
			"target":34963
		},
		{
			"buffer":0,
			"byteLength":1536,
			"byteOffset":134832,
			"target":34962
		},
		{
			"buffer":0,
			"byteLength":1536,
			"byteOffset":136368,
			"target":34962
		},
		{
			"buffer":0,
			"byteLength":1024,
			"byteOffset":137904,
			"target":34962
		},
		{
			"buffer":0,
			"byteLength":768,
			"byteOffset":138928,
			"target":34963
		},
		{
			"buffer":0,
			"byteLength":30816,
			"byteOffset":139696,
			"target":34962
		},
		{
			"buffer":0,
			"byteLength":30816,
			"byteOffset":170512,
			"target":34962
		},
		{
			"buffer":0,
			"byteLength":20544,
			"byteOffset":201328,
			"target":34962
		},
		{
			"buffer":0,
			"byteLength":14772,
			"byteOffset":221872,
			"target":34963
		},
		{
			"buffer":0,
			"byteLength":264288,
			"byteOffset":236644,
			"target":34962
		},
		{
			"buffer":0,
			"byteLength":264288,
			"byteOffset":500932,
			"target":34962
		},
		{
			"buffer":0,
			"byteLength":176192,
			"byteOffset":765220,
			"target":34962
		},
		{
			"buffer":0,
			"byteLength":134016,
			"byteOffset":941412,
			"target":34963
		},
		{
			"buffer":0,
			"byteLength":216,
			"byteOffset":1075428,
			"target":34962
		},
		{
			"buffer":0,
			"byteLength":216,
			"byteOffset":1075644,
			"target":34962
		},
		{
			"buffer":0,
			"byteLength":144,
			"byteOffset":1075860,
			"target":34962
		},
		{
			"buffer":0,
			"byteLength":96,
			"byteOffset":1076004,
			"target":34963
		}
	],
	"buffers":[
		{
			"byteLength":1076100,
			"uri":"watch.bin"
		}
	]
}
